<svg height="512" width="512" xmlns="http://www.w3.org/2000/svg"><g fill="#1793d1" transform="matrix(.87463559801 0 0 .87463560691 -35.36124717667 64.05727288072)"><path d="m318.26231-58.482636c-24.74151 60.6596049-39.6644 100.338114-67.21083 159.194536 16.88942 17.90277 37.62038 38.75144 71.28738 62.29806-36.19533-14.89416-60.88498-29.84754-79.33595-45.3647-35.25418 73.56327-90.48734 178.35087-202.573224 379.74639 88.095744-50.8592 156.385984-82.21444 220.029224-94.17877-2.73287-11.75402-4.28661-24.46827-4.18108-37.73423l.10453-2.82223c1.39787-56.4406 30.75823-99.84343 65.53839-96.89648 34.78018 2.94696 61.81443 51.11759 60.41658 107.55823-.26291 10.62034-1.46084 20.83699-3.55392 30.31281 62.95225 12.31458 130.51228 43.58955 217.41605 93.76067-17.13573-31.54807-32.43085-59.98635-47.03713-87.07094-23.00726-17.83216-47.00498-41.04079-95.95573-66.16556 33.64593 8.74264 57.736 18.8293 76.51372 30.10376-148.50613-276.492457-160.53195-313.232598-211.45801-432.741546z" fill-rule="evenodd"/><g transform="matrix(2.9255356 0 0 2.9255356 -102.71969 -469.96242)"><path d="m239.84053 313.69965v-5.20945h-1.94598v-.697h4.68164v.697h-1.95404v5.20945z"/><path d="m243.39004 313.69965v-5.90645h1.17646l1.39805 4.18205c.12892.38947.22293.6809.28202.87429.0671-.21488.1719-.53048.31426-.94681l1.41417-4.10953h1.05155v5.90645h-.75341v-4.94353l-1.71634 4.94353h-.70506l-1.70828-5.02814v5.02814z"/></g></g></svg>