<svg height="512" width="512" xmlns="http://www.w3.org/2000/svg"><g fill="#333" transform="translate(-100.75915 -484.95513)"><path d="m71.830078 46.238281c-7.31428.0413-13.300337 1.765181-17.273437 5.738281-15.05333 15.053321 2.141945 58.961708 21.046875 94.666018a235.32248 235.32248 0 0 1 72.865234-74.005861c-26.11241-13.765744-56.431601-26.512643-76.638672-26.398438z" transform="translate(100.75915 484.95513)"/><path d="m275.06641 49.996094a220.96997 220.96997 0 0 0 -220.970707 220.970706 220.96997 220.96997 0 0 0 220.970707 220.96875 220.96997 220.96997 0 0 0 220.9707-220.96875 220.96997 220.96997 0 0 0 -22.99414-97.89258c-3.3192 5.67391-6.55166 10.98775-9.56836 15.75586 2.52571 10.98057 1.40301 19.99082-4.04883 25.44531-14.7765 14.77326-55.62559-2.11516-91.23633-37.72266-35.61398-35.61073-52.50239-76.45659-37.72265-91.236324 6.07523-6.080672 16.58015-6.769228 29.30273-3.029297 4.37659-2.742818 9.16365-5.642752 14.25-8.615234a220.96997 220.96997 0 0 0 -98.95312-23.675781z" transform="translate(100.75915 484.95513)"/><path d="m595.635 536.93356c25.42781 25.4278-41.1677 133.25599-52.57758 144.66292-11.40396 11.40101-41.26812.0384-66.69593-25.39237-25.42781-25.43076-36.79633-55.28901-25.38941-66.69593s119.23512-78.00243 144.66292-52.57462z"/></g></svg>